<?xml version="1.0" encoding="UTF-8" standalone="no"?>
<!DOCTYPE svg PUBLIC "-//W3C//DTD SVG 1.1//EN"
 "http://www.w3.org/Graphics/SVG/1.1/DTD/svg11.dtd">
<!-- Generated by graphviz version 2.38.0 (20140413.2041)
 -->
<!-- Title: %3 Pages: 1 -->
<svg width="225pt" height="920pt"
 viewBox="0.00 0.00 225.00 920.00" xmlns="http://www.w3.org/2000/svg" xmlns:xlink="http://www.w3.org/1999/xlink">
<g id="graph0" class="graph" transform="scale(1 1) rotate(0) translate(4 916)">
<title>%3</title>
<polygon fill="white" stroke="none" points="-4,4 -4,-916 221,-916 221,4 -4,4"/>
<!-- filepath1 -->
<g id="node1" class="node"><title>filepath1</title>
<polygon fill="none" stroke="black" points="127.5,-905.5 69.5,-905.5 69.5,-882.5 127.5,-882.5 127.5,-905.5"/>
<text text-anchor="middle" x="98.5" y="-890.3" font-family="Times,serif" font-style="italic" font-size="14.00">filepath</text>
</g>
<!-- snafu mounter -->
<g id="node2" class="node"><title>snafu mounter</title>
<polygon fill="none" stroke="black" stroke-width="2" points="146,-839 51,-839 51,-803 146,-803 146,-839"/>
<text text-anchor="middle" x="98.5" y="-817.3" font-family="Times,serif" font-size="14.00">snafu mounter</text>
</g>
<!-- filepath1&#45;&gt;snafu mounter -->
<g id="edge1" class="edge"><title>filepath1&#45;&gt;snafu mounter</title>
<path fill="none" stroke="black" d="M98.5,-882.217C98.5,-873.485 98.5,-860.792 98.5,-849.308"/>
<polygon fill="black" stroke="black" points="102,-849.251 98.5,-839.251 95.0001,-849.251 102,-849.251"/>
</g>
<!-- filepath2 -->
<g id="node3" class="node"><title>filepath2</title>
<polygon fill="none" stroke="black" points="127.5,-766 69.5,-766 69.5,-743 127.5,-743 127.5,-766"/>
<text text-anchor="middle" x="98.5" y="-750.8" font-family="Times,serif" font-style="italic" font-size="14.00">filepath</text>
</g>
<!-- snafu mounter&#45;&gt;filepath2 -->
<g id="edge2" class="edge"><title>snafu mounter&#45;&gt;filepath2</title>
<path fill="none" stroke="black" d="M98.5,-802.715C98.5,-794.62 98.5,-784.908 98.5,-776.403"/>
<polygon fill="black" stroke="black" points="102,-776.155 98.5,-766.155 95.0001,-776.155 102,-776.155"/>
</g>
<!-- gridclient -->
<g id="node4" class="node"><title>gridclient</title>
<polygon fill="none" stroke="black" stroke-width="2" points="171.5,-706 25.5,-706 25.5,-670 171.5,-670 171.5,-706"/>
<text text-anchor="middle" x="98.5" y="-684.3" font-family="Times,serif" font-size="14.00">grid_filepath_to_URL()</text>
</g>
<!-- filepath2&#45;&gt;gridclient -->
<g id="edge3" class="edge"><title>filepath2&#45;&gt;gridclient</title>
<path fill="none" stroke="black" d="M98.5,-742.849C98.5,-735.622 98.5,-725.716 98.5,-716.371"/>
<polygon fill="black" stroke="black" points="102,-716.229 98.5,-706.229 95.0001,-716.229 102,-716.229"/>
</g>
<!-- filepath3 -->
<g id="node5" class="node"><title>filepath3</title>
<polygon fill="none" stroke="black" points="189,-619 8,-619 8,-596 189,-596 189,-619"/>
<text text-anchor="middle" x="98.5" y="-603.8" font-family="Times,serif" font-style="italic" font-size="14.00">file://&lt;host&gt;/&lt;absolutepath&gt;</text>
</g>
<!-- gridclient&#45;&gt;filepath3 -->
<g id="edge4" class="edge"><title>gridclient&#45;&gt;filepath3</title>
<path fill="none" stroke="black" d="M98.5,-669.967C98.5,-657.969 98.5,-641.842 98.5,-629.118"/>
<polygon fill="black" stroke="black" points="102,-629 98.5,-619 95.0001,-629 102,-629"/>
<text text-anchor="middle" x="126" y="-640.8" font-family="Times,serif" font-size="14.00">addressdb</text>
</g>
<!-- gridclient_addurl() -->
<g id="node8" class="node"><title>gridclient_addurl()</title>
<polygon fill="none" stroke="black" stroke-width="2" points="158,-545 39,-545 39,-509 158,-509 158,-545"/>
<text text-anchor="middle" x="98.5" y="-523.3" font-family="Times,serif" font-size="14.00">gridclient_addurl()</text>
</g>
<!-- filepath3&#45;&gt;gridclient_addurl() -->
<g id="edge5" class="edge"><title>filepath3&#45;&gt;gridclient_addurl()</title>
<path fill="none" stroke="black" d="M98.5,-595.913C98.5,-585.508 98.5,-569.194 98.5,-555.164"/>
<polygon fill="black" stroke="black" points="102,-555.015 98.5,-545.015 95.0001,-555.015 102,-555.015"/>
<text text-anchor="middle" x="126" y="-566.8" font-family="Times,serif" font-size="14.00">addressdb</text>
</g>
<!-- filepath4 -->
<g id="node6" class="node"><title>filepath4</title>
<polygon fill="none" stroke="black" points="189,-110 8,-110 8,-87 189,-87 189,-110"/>
<text text-anchor="middle" x="98.5" y="-94.8" font-family="Times,serif" font-style="italic" font-size="14.00">file://&lt;host&gt;/&lt;absolutepath&gt;</text>
</g>
<!-- addressdb_input -->
<g id="node12" class="node"><title>addressdb_input</title>
<polygon fill="none" stroke="black" stroke-width="2" points="151,-36 46,-36 46,-0 151,-0 151,-36"/>
<text text-anchor="middle" x="98.5" y="-14.3" font-family="Times,serif" font-size="14.00">addressdb_input</text>
</g>
<!-- filepath4&#45;&gt;addressdb_input -->
<g id="edge11" class="edge"><title>filepath4&#45;&gt;addressdb_input</title>
<path fill="none" stroke="black" d="M98.5,-86.9131C98.5,-76.5082 98.5,-60.1943 98.5,-46.1637"/>
<polygon fill="black" stroke="black" points="102,-46.0152 98.5,-36.0152 95.0001,-46.0152 102,-46.0152"/>
<text text-anchor="middle" x="126" y="-57.8" font-family="Times,serif" font-size="14.00">addressdb</text>
</g>
<!-- gridclient_protocol msg -->
<g id="node7" class="node"><title>gridclient_protocol msg</title>
<polygon fill="none" stroke="black" points="172,-458 25,-458 25,-422 172,-422 172,-458"/>
<text text-anchor="middle" x="98.5" y="-436.3" font-family="Times,serif" font-size="14.00">gridclient_protocol msg</text>
</g>
<!-- gridsocket -->
<g id="node9" class="node"><title>gridsocket</title>
<polygon fill="none" stroke="black" stroke-dasharray="5,2" points="135,-371 62,-371 62,-335 135,-335 135,-371"/>
<text text-anchor="middle" x="98.5" y="-349.3" font-family="Times,serif" font-size="14.00">gridsocket</text>
</g>
<!-- gridclient_protocol msg&#45;&gt;gridsocket -->
<g id="edge7" class="edge"><title>gridclient_protocol msg&#45;&gt;gridsocket</title>
<path fill="none" stroke="black" d="M98.5,-421.799C98.5,-410.163 98.5,-394.548 98.5,-381.237"/>
<polygon fill="black" stroke="black" points="102,-381.175 98.5,-371.175 95.0001,-381.175 102,-381.175"/>
<text text-anchor="middle" x="126" y="-392.8" font-family="Times,serif" font-size="14.00">addressdb</text>
</g>
<!-- gridclient_addurl()&#45;&gt;gridclient_protocol msg -->
<g id="edge6" class="edge"><title>gridclient_addurl()&#45;&gt;gridclient_protocol msg</title>
<path fill="none" stroke="black" d="M98.5,-508.799C98.5,-497.163 98.5,-481.548 98.5,-468.237"/>
<polygon fill="black" stroke="black" points="102,-468.175 98.5,-458.175 95.0001,-468.175 102,-468.175"/>
<text text-anchor="middle" x="126" y="-479.8" font-family="Times,serif" font-size="14.00">addressdb</text>
</g>
<!-- gridhost::interp_gridclient_msg() -->
<g id="node10" class="node"><title>gridhost::interp_gridclient_msg()</title>
<polygon fill="none" stroke="black" stroke-width="2" points="197,-284 0,-284 0,-248 197,-248 197,-284"/>
<text text-anchor="middle" x="98.5" y="-262.3" font-family="Times,serif" font-size="14.00">gridhost::interp_gridclient_msg()</text>
</g>
<!-- gridsocket&#45;&gt;gridhost::interp_gridclient_msg() -->
<g id="edge8" class="edge"><title>gridsocket&#45;&gt;gridhost::interp_gridclient_msg()</title>
<path fill="none" stroke="black" d="M98.5,-334.799C98.5,-323.163 98.5,-307.548 98.5,-294.237"/>
<polygon fill="black" stroke="black" points="102,-294.175 98.5,-284.175 95.0001,-294.175 102,-294.175"/>
<text text-anchor="middle" x="126" y="-305.8" font-family="Times,serif" font-size="14.00">addressdb</text>
</g>
<!-- grid_addurl() -->
<g id="node11" class="node"><title>grid_addurl()</title>
<polygon fill="none" stroke="black" stroke-width="2" points="143,-197 54,-197 54,-161 143,-161 143,-197"/>
<text text-anchor="middle" x="98.5" y="-175.3" font-family="Times,serif" font-size="14.00">grid_addurl()</text>
</g>
<!-- gridhost::interp_gridclient_msg()&#45;&gt;grid_addurl() -->
<g id="edge9" class="edge"><title>gridhost::interp_gridclient_msg()&#45;&gt;grid_addurl()</title>
<path fill="none" stroke="black" d="M98.5,-247.799C98.5,-236.163 98.5,-220.548 98.5,-207.237"/>
<polygon fill="black" stroke="black" points="102,-207.175 98.5,-197.175 95.0001,-207.175 102,-207.175"/>
<text text-anchor="middle" x="126" y="-218.8" font-family="Times,serif" font-size="14.00">addressdb</text>
</g>
<!-- grid_addurl()&#45;&gt;filepath4 -->
<g id="edge10" class="edge"><title>grid_addurl()&#45;&gt;filepath4</title>
<path fill="none" stroke="black" d="M98.5,-160.967C98.5,-148.969 98.5,-132.842 98.5,-120.118"/>
<polygon fill="black" stroke="black" points="102,-120 98.5,-110 95.0001,-120 102,-120"/>
<text text-anchor="middle" x="126" y="-131.8" font-family="Times,serif" font-size="14.00">addressdb</text>
</g>
<!-- addressdb -->
<g id="node13" class="node"><title>addressdb</title>
<polygon fill="none" stroke="black" stroke-width="2" points="217,-912 146,-912 146,-876 217,-876 217,-912"/>
<text text-anchor="middle" x="181.5" y="-890.3" font-family="Times,serif" font-size="14.00">addressdb</text>
</g>
</g>
</svg>
