<?xml version="1.0" encoding="UTF-8" standalone="no"?>
<!DOCTYPE svg PUBLIC "-//W3C//DTD SVG 1.1//EN"
 "http://www.w3.org/Graphics/SVG/1.1/DTD/svg11.dtd">
<!-- Generated by graphviz version 2.38.0 (20140413.2041)
 -->
<!-- Title: src layout Pages: 1 -->
<svg width="497pt" height="694pt"
 viewBox="0.00 0.00 497.00 694.00" xmlns="http://www.w3.org/2000/svg" xmlns:xlink="http://www.w3.org/1999/xlink">
<g id="graph0" class="graph" transform="scale(1 1) rotate(0) translate(4 690)">
<title>src layout</title>
<polygon fill="white" stroke="none" points="-4,4 -4,-690 493,-690 493,4 -4,4"/>
<!-- Snafu/src -->
<g id="node1" class="node"><title>Snafu/src</title>
<polygon fill="none" stroke="black" points="68,-426 0,-426 0,-390 68,-390 68,-426"/>
<text text-anchor="middle" x="34" y="-404.3" font-family="Times,serif" font-size="14.00">Snafu/src</text>
</g>
<!-- gridhostd -->
<g id="node2" class="node"><title>gridhostd</title>
<polygon fill="none" stroke="black" points="208,-653 140,-653 140,-617 208,-617 208,-653"/>
<text text-anchor="middle" x="174" y="-631.3" font-family="Times,serif" font-size="14.00">gridhostd</text>
</g>
<!-- Snafu/src&#45;&#45;gridhostd -->
<g id="edge1" class="edge"><title>Snafu/src&#45;&#45;gridhostd</title>
<path fill="none" stroke="black" d="M46.0598,-426.193C71.8992,-468.696 135.996,-574.132 161.887,-616.721"/>
</g>
<!-- hnfc -->
<g id="node3" class="node"><title>hnfc</title>
<polygon fill="none" stroke="black" points="201,-556 147,-556 147,-520 201,-520 201,-556"/>
<text text-anchor="middle" x="174" y="-534.3" font-family="Times,serif" font-size="14.00">hnfc</text>
</g>
<!-- Snafu/src&#45;&#45;hnfc -->
<g id="edge2" class="edge"><title>Snafu/src&#45;&#45;hnfc</title>
<path fill="none" stroke="black" d="M54.1883,-426.076C80.4055,-450.773 127.166,-494.823 153.53,-519.658"/>
</g>
<!-- libaddr -->
<g id="node4" class="node"><title>libaddr</title>
<polygon fill="none" stroke="black" points="201.5,-491 146.5,-491 146.5,-455 201.5,-455 201.5,-491"/>
<text text-anchor="middle" x="174" y="-469.3" font-family="Times,serif" font-size="14.00">libaddr</text>
</g>
<!-- Snafu/src&#45;&#45;libaddr -->
<g id="edge3" class="edge"><title>Snafu/src&#45;&#45;libaddr</title>
<path fill="none" stroke="black" d="M68.0544,-423.569C91.976,-434.837 123.895,-449.871 146.226,-460.389"/>
</g>
<!-- libgrid -->
<g id="node5" class="node"><title>libgrid</title>
<polygon fill="none" stroke="black" points="201,-426 147,-426 147,-390 201,-390 201,-426"/>
<text text-anchor="middle" x="174" y="-404.3" font-family="Times,serif" font-size="14.00">libgrid</text>
</g>
<!-- Snafu/src&#45;&#45;libgrid -->
<g id="edge4" class="edge"><title>Snafu/src&#45;&#45;libgrid</title>
<path fill="none" stroke="black" d="M68.0544,-408C92.1354,-408 124.321,-408 146.671,-408"/>
</g>
<!-- modules -->
<g id="node6" class="node"><title>modules</title>
<polygon fill="none" stroke="black" points="205.5,-329 142.5,-329 142.5,-293 205.5,-293 205.5,-329"/>
<text text-anchor="middle" x="174" y="-307.3" font-family="Times,serif" font-size="14.00">modules</text>
</g>
<!-- Snafu/src&#45;&#45;modules -->
<g id="edge5" class="edge"><title>Snafu/src&#45;&#45;modules</title>
<path fill="none" stroke="black" d="M60.6333,-389.982C85.2644,-372.669 122.294,-346.641 147.036,-329.25"/>
</g>
<!-- snafu -->
<g id="node7" class="node"><title>snafu</title>
<polygon fill="none" stroke="black" points="201,-264 147,-264 147,-228 201,-228 201,-264"/>
<text text-anchor="middle" x="174" y="-242.3" font-family="Times,serif" font-size="14.00">snafu</text>
</g>
<!-- Snafu/src&#45;&#45;snafu -->
<g id="edge6" class="edge"><title>Snafu/src&#45;&#45;snafu</title>
<path fill="none" stroke="black" d="M50.5621,-389.731C77.0661,-358.618 130.674,-295.687 157.283,-264.45"/>
</g>
<!-- types -->
<g id="node8" class="node"><title>types</title>
<polygon fill="none" stroke="black" points="201,-133 147,-133 147,-97 201,-97 201,-133"/>
<text text-anchor="middle" x="174" y="-111.3" font-family="Times,serif" font-size="14.00">types</text>
</g>
<!-- Snafu/src&#45;&#45;types -->
<g id="edge7" class="edge"><title>Snafu/src&#45;&#45;types</title>
<path fill="none" stroke="black" d="M43.6325,-389.672C68.4154,-337.053 139.592,-185.932 164.371,-133.322"/>
</g>
<!-- address data -->
<g id="node9" class="node"><title>address data</title>
<polygon fill="none" stroke="black" points="363,-686 280,-686 280,-650 363,-650 363,-686"/>
<text text-anchor="middle" x="321.5" y="-664.3" font-family="Times,serif" font-size="14.00">address data</text>
</g>
<!-- gridhostd&#45;&#45;address data -->
<g id="edge8" class="edge"><title>gridhostd&#45;&#45;address data</title>
<path fill="none" stroke="black" d="M208.016,-642.488C229.313,-647.318 257.162,-653.635 279.822,-658.774"/>
</g>
<!-- gridclient -->
<g id="node10" class="node"><title>gridclient</title>
<polygon fill="none" stroke="black" points="355.5,-621 287.5,-621 287.5,-585 355.5,-585 355.5,-621"/>
<text text-anchor="middle" x="321.5" y="-599.3" font-family="Times,serif" font-size="14.00">gridclient</text>
</g>
<!-- libgrid&#45;&#45;gridclient -->
<g id="edge9" class="edge"><title>libgrid&#45;&#45;gridclient</title>
<path fill="none" stroke="black" d="M188.688,-426.345C216.49,-463.605 279.272,-547.746 306.954,-584.846"/>
</g>
<!-- gridhost -->
<g id="node11" class="node"><title>gridhost</title>
<polygon fill="none" stroke="black" points="352,-556 291,-556 291,-520 352,-520 352,-556"/>
<text text-anchor="middle" x="321.5" y="-534.3" font-family="Times,serif" font-size="14.00">gridhost</text>
</g>
<!-- libgrid&#45;&#45;gridhost -->
<g id="edge10" class="edge"><title>libgrid&#45;&#45;gridhost</title>
<path fill="none" stroke="black" d="M195.231,-426.076C222.873,-450.773 272.175,-494.823 299.972,-519.658"/>
</g>
<!-- gridsocket -->
<g id="node12" class="node"><title>gridsocket</title>
<polygon fill="none" stroke="black" points="358,-491 285,-491 285,-455 358,-455 358,-491"/>
<text text-anchor="middle" x="321.5" y="-469.3" font-family="Times,serif" font-size="14.00">gridsocket</text>
</g>
<!-- libgrid&#45;&#45;gridsocket -->
<g id="edge11" class="edge"><title>libgrid&#45;&#45;gridsocket</title>
<path fill="none" stroke="black" d="M201.012,-419.621C224.39,-430.064 258.934,-445.496 284.875,-457.085"/>
</g>
<!-- hiena -->
<g id="node13" class="node"><title>hiena</title>
<polygon fill="none" stroke="black" points="348.5,-426 294.5,-426 294.5,-390 348.5,-390 348.5,-426"/>
<text text-anchor="middle" x="321.5" y="-404.3" font-family="Times,serif" font-size="14.00">hiena</text>
</g>
<!-- libgrid&#45;&#45;hiena -->
<g id="edge12" class="edge"><title>libgrid&#45;&#45;hiena</title>
<path fill="none" stroke="black" d="M201.012,-408C227.333,-408 267.807,-408 294.222,-408"/>
</g>
<!-- cosmos -->
<g id="node14" class="node"><title>cosmos</title>
<polygon fill="none" stroke="black" points="350.5,-361 292.5,-361 292.5,-325 350.5,-325 350.5,-361"/>
<text text-anchor="middle" x="321.5" y="-339.3" font-family="Times,serif" font-size="14.00">cosmos</text>
</g>
<!-- libgrid&#45;&#45;cosmos -->
<g id="edge13" class="edge"><title>libgrid&#45;&#45;cosmos</title>
<path fill="none" stroke="black" d="M201.012,-396.379C226.761,-384.877 266.054,-367.323 292.48,-355.518"/>
</g>
<!-- server -->
<g id="node15" class="node"><title>server</title>
<polygon fill="none" stroke="black" points="348.5,-296 294.5,-296 294.5,-260 348.5,-260 348.5,-296"/>
<text text-anchor="middle" x="321.5" y="-274.3" font-family="Times,serif" font-size="14.00">server</text>
</g>
<!-- modules&#45;&#45;server -->
<g id="edge14" class="edge"><title>modules&#45;&#45;server</title>
<path fill="none" stroke="black" d="M205.502,-304.082C231.834,-298.11 269.468,-289.574 294.422,-283.915"/>
</g>
<!-- lookup -->
<g id="node16" class="node"><title>lookup</title>
<polygon fill="none" stroke="black" points="348.5,-231 294.5,-231 294.5,-195 348.5,-195 348.5,-231"/>
<text text-anchor="middle" x="321.5" y="-209.3" font-family="Times,serif" font-size="14.00">lookup</text>
</g>
<!-- modules&#45;&#45;lookup -->
<g id="edge15" class="edge"><title>modules&#45;&#45;lookup</title>
<path fill="none" stroke="black" d="M202.026,-292.797C228.325,-275.084 268.029,-248.341 294.109,-230.775"/>
</g>
<!-- ox -->
<g id="node21" class="node"><title>ox</title>
<polygon fill="none" stroke="black" points="348.5,-166 294.5,-166 294.5,-130 348.5,-130 348.5,-166"/>
<text text-anchor="middle" x="321.5" y="-144.3" font-family="Times,serif" font-size="14.00">ox</text>
</g>
<!-- types&#45;&#45;ox -->
<g id="edge20" class="edge"><title>types&#45;&#45;ox</title>
<path fill="none" stroke="black" d="M201.012,-120.9C227.333,-126.869 267.807,-136.049 294.222,-142.04"/>
</g>
<!-- raymarks -->
<g id="node22" class="node"><title>raymarks</title>
<polygon fill="none" stroke="black" points="355.5,-101 287.5,-101 287.5,-65 355.5,-65 355.5,-101"/>
<text text-anchor="middle" x="321.5" y="-79.3" font-family="Times,serif" font-size="14.00">raymarks</text>
</g>
<!-- types&#45;&#45;raymarks -->
<g id="edge21" class="edge"><title>types&#45;&#45;raymarks</title>
<path fill="none" stroke="black" d="M201.012,-109.279C225.126,-103.976 261.119,-96.0597 287.297,-90.3023"/>
</g>
<!-- yaml -->
<g id="node23" class="node"><title>yaml</title>
<polygon fill="none" stroke="black" points="348.5,-36 294.5,-36 294.5,-0 348.5,-0 348.5,-36"/>
<text text-anchor="middle" x="321.5" y="-14.3" font-family="Times,serif" font-size="14.00">yaml</text>
</g>
<!-- types&#45;&#45;yaml -->
<g id="edge22" class="edge"><title>types&#45;&#45;yaml</title>
<path fill="none" stroke="black" d="M201.012,-97.6583C227.333,-80.1115 267.807,-53.1286 294.222,-35.5186"/>
</g>
<!-- file -->
<g id="node17" class="node"><title>file</title>
<polygon fill="none" stroke="black" points="489,-393 435,-393 435,-357 489,-357 489,-393"/>
<text text-anchor="middle" x="462" y="-371.3" font-family="Times,serif" font-size="14.00">file</text>
</g>
<!-- server&#45;&#45;file -->
<g id="edge16" class="edge"><title>server&#45;&#45;file</title>
<path fill="none" stroke="black" d="M348.226,-296.018C372.947,-313.331 410.111,-339.359 434.942,-356.75"/>
</g>
<!-- ssh -->
<g id="node18" class="node"><title>ssh</title>
<polygon fill="none" stroke="black" points="489,-328 435,-328 435,-292 489,-292 489,-328"/>
<text text-anchor="middle" x="462" y="-306.3" font-family="Times,serif" font-size="14.00">ssh</text>
</g>
<!-- server&#45;&#45;ssh -->
<g id="edge17" class="edge"><title>server&#45;&#45;ssh</title>
<path fill="none" stroke="black" d="M348.551,-284.019C373.156,-289.704 409.875,-298.188 434.595,-303.899"/>
</g>
<!-- mem -->
<g id="node19" class="node"><title>mem</title>
<polygon fill="none" stroke="black" points="489,-263 435,-263 435,-227 489,-227 489,-263"/>
<text text-anchor="middle" x="462" y="-241.3" font-family="Times,serif" font-size="14.00">mem</text>
</g>
<!-- server&#45;&#45;mem -->
<g id="edge18" class="edge"><title>server&#45;&#45;mem</title>
<path fill="none" stroke="black" d="M348.551,-271.793C373.156,-265.93 409.875,-257.181 434.595,-251.291"/>
</g>
<!-- fudge -->
<g id="node20" class="node"><title>fudge</title>
<polygon fill="none" stroke="black" points="489,-198 435,-198 435,-162 489,-162 489,-198"/>
<text text-anchor="middle" x="462" y="-176.3" font-family="Times,serif" font-size="14.00">fudge</text>
</g>
<!-- lookup&#45;&#45;fudge -->
<g id="edge19" class="edge"><title>lookup&#45;&#45;fudge</title>
<path fill="none" stroke="black" d="M348.551,-206.793C373.156,-200.93 409.875,-192.181 434.595,-186.291"/>
</g>
</g>
</svg>
