<?xml version="1.0" encoding="UTF-8" standalone="no"?>
<!DOCTYPE svg PUBLIC "-//W3C//DTD SVG 1.1//EN"
 "http://www.w3.org/Graphics/SVG/1.1/DTD/svg11.dtd">
<!-- Generated by graphviz version 2.38.0 (20140413.2041)
 -->
<!-- Title: %3 Pages: 1 -->
<svg width="1275pt" height="1202pt"
 viewBox="0.00 0.00 1275.00 1202.00" xmlns="http://www.w3.org/2000/svg" xmlns:xlink="http://www.w3.org/1999/xlink">
<g id="graph0" class="graph" transform="scale(1 1) rotate(0) translate(36 1143)">
<title>%3</title>
<polygon fill="white" stroke="none" points="-36,59 -36,-1143 1239,-1143 1239,59 -36,59"/>
<text text-anchor="middle" x="601.5" y="15.2" font-family="Times,serif" font-size="14.00">development feeds</text>
<g id="clust1" class="cluster"><title>cluster socket</title>
<polygon fill="none" stroke="black" stroke-dasharray="1,5" points="0.298288,-902.358 0.298288,-1107.36 318.298,-1107.36 318.298,-902.358 0.298288,-902.358"/>
<text text-anchor="middle" x="159.298" y="-1092.16" font-family="Times,serif" font-size="14.00">gridsocket</text>
</g>
<g id="clust2" class="cluster"><title>cluster libgrid</title>
<polygon fill="none" stroke="black" stroke-dasharray="1,5" points="439.641,-718.55 439.641,-895.55 648.641,-895.55 648.641,-718.55 439.641,-718.55"/>
<text text-anchor="middle" x="544.141" y="-880.35" font-family="Times,serif" font-size="14.00">libgrid</text>
</g>
<g id="clust3" class="cluster"><title>cluster hiena</title>
<polygon fill="none" stroke="black" stroke-dasharray="1,5" points="537.621,-365.977 537.621,-637.977 861.621,-637.977 861.621,-365.977 537.621,-365.977"/>
</g>
<g id="clust4" class="cluster"><title>cluster cosmos</title>
<polygon fill="none" stroke="black" stroke-dasharray="1,5" points="764.437,-869.166 764.437,-1023.17 976.437,-1023.17 976.437,-869.166 764.437,-869.166"/>
<text text-anchor="middle" x="870.437" y="-1007.97" font-family="Times,serif" font-size="14.00">Cosmos</text>
<text text-anchor="middle" x="870.437" y="-992.966" font-family="Times,serif" font-size="14.00">			(design near ready)</text>
</g>
<!-- Grid Host Protocol -->
<g id="node1" class="node"><title>Grid Host Protocol</title>
<polygon fill="none" stroke="black" points="128.572,-1050.58 8.57243,-1050.58 8.57243,-1014.58 128.572,-1014.58 128.572,-1050.58"/>
<text text-anchor="middle" x="68.5724" y="-1028.88" font-family="Times,serif" font-size="14.00">Grid Host Protocol</text>
</g>
<!-- gridhost -->
<g id="node4" class="node"><title>gridhost</title>
<polygon fill="none" stroke="black" points="608.516,-808.784 547.516,-808.784 547.516,-772.784 608.516,-772.784 608.516,-808.784"/>
<text text-anchor="middle" x="578.016" y="-787.084" font-family="Times,serif" font-size="14.00">gridhost</text>
</g>
<!-- Grid Host Protocol&#45;&gt;gridhost -->
<g id="edge5" class="edge"><title>Grid Host Protocol&#45;&gt;gridhost</title>
<path fill="none" stroke="black" d="M128.703,-1023.85C157.689,-1018.51 192.579,-1010.42 222.525,-998.7 349.451,-949.044 484.462,-858.055 545.14,-814.821"/>
<polygon fill="black" stroke="black" points="547.453,-817.469 553.543,-808.799 543.376,-811.779 547.453,-817.469"/>
</g>
<!-- Grid Client Protocol -->
<g id="node2" class="node"><title>Grid Client Protocol</title>
<polygon fill="none" stroke="black" points="310.79,-1060.53 182.79,-1060.53 182.79,-1024.53 310.79,-1024.53 310.79,-1060.53"/>
<text text-anchor="middle" x="246.79" y="-1038.83" font-family="Times,serif" font-size="14.00">Grid Client Protocol</text>
</g>
<!-- Grid Client Protocol&#45;&gt;gridhost -->
<g id="edge3" class="edge"><title>Grid Client Protocol&#45;&gt;gridhost</title>
<path fill="none" stroke="black" d="M270.611,-1024.42C329.076,-979.987 479.698,-865.509 545.943,-815.16"/>
<polygon fill="black" stroke="black" points="548.123,-817.9 553.966,-809.063 543.887,-812.327 548.123,-817.9"/>
</g>
<!-- gridclient -->
<g id="node5" class="node"><title>gridclient</title>
<polygon fill="none" stroke="black" points="531.659,-769.425 463.659,-769.425 463.659,-733.425 531.659,-733.425 531.659,-769.425"/>
<text text-anchor="middle" x="497.659" y="-747.725" font-family="Times,serif" font-size="14.00">gridclient</text>
</g>
<!-- Grid Client Protocol&#45;&gt;gridclient -->
<g id="edge2" class="edge"><title>Grid Client Protocol&#45;&gt;gridclient</title>
<path fill="none" stroke="black" d="M262.483,-1024.32C305.512,-974.387 425.472,-835.189 475.406,-777.246"/>
<polygon fill="black" stroke="black" points="478.095,-779.488 481.972,-769.628 472.792,-774.918 478.095,-779.488"/>
</g>
<!-- gridsocket -->
<g id="node3" class="node"><title>gridsocket</title>
<polygon fill="none" stroke="black" points="219.325,-995.5 146.325,-995.5 146.325,-959.5 219.325,-959.5 219.325,-995.5"/>
<text text-anchor="middle" x="182.825" y="-973.8" font-family="Times,serif" font-size="14.00">gridsocket</text>
</g>
<!-- gridsocket&#45;&gt;gridhost -->
<g id="edge1" class="edge"><title>gridsocket&#45;&gt;gridhost</title>
<path fill="none" stroke="black" d="M219.649,-960.102C293.978,-924.983 461.385,-845.888 538.166,-809.612"/>
<polygon fill="black" stroke="black" points="539.96,-812.635 547.506,-805.199 536.97,-806.306 539.96,-812.635"/>
</g>
<!-- gridsocket&#45;&gt;gridclient -->
<g id="edge4" class="edge"><title>gridsocket&#45;&gt;gridclient</title>
<path fill="none" stroke="black" d="M208.057,-959.381C264.359,-918.952 400.276,-821.353 463.834,-775.713"/>
<polygon fill="black" stroke="black" points="466.225,-778.305 472.306,-769.629 462.142,-772.619 466.225,-778.305"/>
</g>
<!-- liblookup -->
<g id="node6" class="node"><title>liblookup</title>
<polygon fill="none" stroke="black" points="735.685,-799.759 667.685,-799.759 667.685,-763.759 735.685,-763.759 735.685,-799.759"/>
<text text-anchor="middle" x="701.685" y="-778.059" font-family="Times,serif" font-size="14.00">liblookup</text>
</g>
<!-- gridhost&#45;&gt;liblookup -->
<g id="edge6" class="edge"><title>gridhost&#45;&gt;liblookup</title>
<path fill="none" stroke="black" d="M608.586,-788.553C623.255,-787.482 641.109,-786.18 657.243,-785.002"/>
<polygon fill="black" stroke="black" points="657.828,-788.469 667.547,-784.25 657.318,-781.487 657.828,-788.469"/>
</g>
<!-- gridhostd -->
<g id="node7" class="node"><title>gridhostd</title>
<polygon fill="none" stroke="black" stroke-width="2" points="457.32,-1053.83 389.32,-1053.83 389.32,-1017.83 457.32,-1017.83 457.32,-1053.83"/>
<text text-anchor="middle" x="423.32" y="-1032.13" font-family="Times,serif" font-size="14.00">gridhostd</text>
</g>
<!-- gridhost&#45;&gt;gridhostd -->
<g id="edge7" class="edge"><title>gridhost&#45;&gt;gridhostd</title>
<path fill="none" stroke="black" d="M566.641,-808.803C539.709,-851.464 471.933,-958.826 440.2,-1009.09"/>
<polygon fill="black" stroke="black" points="437.091,-1007.46 434.712,-1017.79 443.01,-1011.2 437.091,-1007.46"/>
</g>
<!-- snafu -->
<g id="node8" class="node"><title>snafu</title>
<polygon fill="none" stroke="black" stroke-width="2" points="320.635,-764.83 266.635,-764.83 266.635,-728.83 320.635,-728.83 320.635,-764.83"/>
<text text-anchor="middle" x="293.635" y="-743.13" font-family="Times,serif" font-size="14.00">snafu</text>
</g>
<!-- gridclient&#45;&gt;snafu -->
<g id="edge8" class="edge"><title>gridclient&#45;&gt;snafu</title>
<path fill="none" stroke="black" d="M463.51,-750.656C426.803,-749.829 368.643,-748.52 330.807,-747.668"/>
<polygon fill="black" stroke="black" points="330.786,-744.166 320.709,-747.44 330.628,-751.164 330.786,-744.166"/>
</g>
<!-- liblookup&#45;&gt;gridhost -->
<g id="edge27" class="edge"><title>liblookup&#45;&gt;gridhost</title>
<path fill="none" stroke="black" d="M667.565,-784.249C652.433,-785.353 634.511,-786.661 618.69,-787.816"/>
<polygon fill="black" stroke="black" points="618.366,-784.33 608.647,-788.548 618.875,-791.311 618.366,-784.33"/>
</g>
<!-- lookupmodule -->
<g id="node22" class="node"><title>lookupmodule</title>
<polygon fill="none" stroke="black" stroke-width="2" points="753.192,-947.932 658.192,-947.932 658.192,-911.932 753.192,-911.932 753.192,-947.932"/>
<text text-anchor="middle" x="705.692" y="-926.232" font-family="Times,serif" font-size="14.00">lookupmodule</text>
</g>
<!-- liblookup&#45;&gt;lookupmodule -->
<g id="edge33" class="edge"><title>liblookup&#45;&gt;lookupmodule</title>
<path fill="none" stroke="black" d="M702.176,-799.928C702.861,-825.256 704.11,-871.43 704.92,-901.382"/>
<polygon fill="black" stroke="black" points="701.428,-901.713 705.197,-911.615 708.425,-901.524 701.428,-901.713"/>
</g>
<!-- grid instruction -->
<g id="node9" class="node"><title>grid instruction</title>
<polygon fill="none" stroke="black" points="772.268,-698.087 545.268,-698.087 545.268,-660.087 772.268,-660.087 772.268,-698.087"/>
<text text-anchor="middle" x="658.768" y="-682.887" font-family="Times,serif" font-size="14.00">grid instruction/</text>
<text text-anchor="middle" x="658.768" y="-667.887" font-family="Times,serif" font-size="14.00">			production instruction</text>
</g>
<!-- grid instruction&#45;&gt;gridhost -->
<g id="edge12" class="edge"><title>grid instruction&#45;&gt;gridhost</title>
<path fill="none" stroke="black" d="M644.886,-698.288C631.708,-716.517 611.787,-744.072 597.114,-764.367"/>
<polygon fill="black" stroke="black" points="594.205,-762.418 591.182,-772.573 599.877,-766.519 594.205,-762.418"/>
</g>
<!-- grid instruction&#45;&gt;liblookup -->
<g id="edge13" class="edge"><title>grid instruction&#45;&gt;liblookup</title>
<path fill="none" stroke="black" d="M666.84,-698.399C673.437,-714.181 682.845,-736.686 690.222,-754.336"/>
<polygon fill="black" stroke="black" points="686.995,-755.691 694.081,-763.568 693.454,-752.991 686.995,-755.691"/>
</g>
<!-- mapping engine -->
<g id="node10" class="node"><title>mapping engine</title>
<polygon fill="none" stroke="black" points="738.695,-535.353 634.695,-535.353 634.695,-499.353 738.695,-499.353 738.695,-535.353"/>
<text text-anchor="middle" x="686.695" y="-513.653" font-family="Times,serif" font-size="14.00">mapping engine</text>
</g>
<!-- grid instruction&#45;&gt;mapping engine -->
<g id="edge9" class="edge"><title>grid instruction&#45;&gt;mapping engine</title>
<path fill="none" stroke="black" d="M656.59,-660.069C654.378,-634.646 652.804,-588.304 667.302,-545.001"/>
<polygon fill="black" stroke="black" points="670.619,-546.122 670.76,-535.528 664.043,-543.722 670.619,-546.122"/>
</g>
<!-- fragment -->
<g id="node11" class="node"><title>fragment</title>
<polygon fill="none" stroke="black" points="737.113,-580.518 671.113,-580.518 671.113,-544.518 737.113,-544.518 737.113,-580.518"/>
<text text-anchor="middle" x="704.113" y="-558.818" font-family="Times,serif" font-size="14.00">fragment</text>
</g>
<!-- grid instruction&#45;&gt;fragment -->
<g id="edge10" class="edge"><title>grid instruction&#45;&gt;fragment</title>
<path fill="none" stroke="black" d="M666.256,-659.838C673.639,-640.857 684.999,-611.655 693.349,-590.189"/>
<polygon fill="black" stroke="black" points="696.699,-591.232 697.062,-580.644 690.175,-588.695 696.699,-591.232"/>
</g>
<!-- dcel -->
<g id="node12" class="node"><title>dcel</title>
<polygon fill="none" stroke="black" points="612.722,-564.598 558.722,-564.598 558.722,-528.598 612.722,-528.598 612.722,-564.598"/>
<text text-anchor="middle" x="585.722" y="-542.898" font-family="Times,serif" font-size="14.00">dcel</text>
</g>
<!-- grid instruction&#45;&gt;dcel -->
<g id="edge11" class="edge"><title>grid instruction&#45;&gt;dcel</title>
<path fill="none" stroke="black" d="M648.147,-659.822C635.601,-637.067 614.654,-599.074 600.523,-573.443"/>
<polygon fill="black" stroke="black" points="603.546,-571.678 595.653,-564.61 597.416,-575.057 603.546,-571.678"/>
</g>
<!-- mapping engine&#45;&gt;dcel -->
<!-- fragment&#45;&gt;dcel -->
<g id="edge20" class="edge"><title>fragment&#45;&gt;dcel</title>
<path fill="none" stroke="black" d="M670.82,-558.041C655.927,-556.038 638.31,-553.669 622.979,-551.608"/>
<polygon fill="black" stroke="black" points="623.17,-548.102 612.793,-550.238 622.237,-555.04 623.17,-548.102"/>
</g>
<!-- producer interface -->
<g id="node13" class="node"><title>producer interface</title>
<polygon fill="none" stroke="black" points="853.174,-484.526 737.174,-484.526 737.174,-448.526 853.174,-448.526 853.174,-484.526"/>
<text text-anchor="middle" x="795.174" y="-462.826" font-family="Times,serif" font-size="14.00">producer interface</text>
</g>
<!-- fragment&#45;&gt;producer interface -->
<!-- dcel&#45;&gt;grid instruction -->
<g id="edge18" class="edge"><title>dcel&#45;&gt;grid instruction</title>
<path fill="none" stroke="black" d="M595.726,-564.742C607.975,-586.96 628.859,-624.839 643.212,-650.871"/>
<polygon fill="black" stroke="black" points="640.283,-652.807 648.176,-659.875 646.413,-649.428 640.283,-652.807"/>
</g>
<!-- dcel&#45;&gt;fragment -->
<!-- hiena -->
<g id="node14" class="node"><title>hiena</title>
<polygon fill="none" stroke="black" points="717.663,-412.555 663.663,-412.555 663.663,-376.555 717.663,-376.555 717.663,-412.555"/>
<text text-anchor="middle" x="690.663" y="-390.855" font-family="Times,serif" font-size="14.00">hiena</text>
</g>
<!-- producer interface&#45;&gt;hiena -->
<!-- hiena&#45;&gt;grid instruction -->
<g id="edge19" class="edge"><title>hiena&#45;&gt;grid instruction</title>
<path fill="none" stroke="black" d="M676.075,-412.677C661.518,-432.024 640.114,-464.229 631.495,-496.153 617.075,-549.567 634.421,-613.949 647.304,-650.338"/>
<polygon fill="black" stroke="black" points="644.056,-651.647 650.79,-659.827 650.627,-649.234 644.056,-651.647"/>
</g>
<!-- cosmos -->
<g id="node15" class="node"><title>cosmos</title>
<polygon fill="none" stroke="black" points="912.778,-976.679 835.778,-976.679 835.778,-940.679 912.778,-940.679 912.778,-976.679"/>
<text text-anchor="middle" x="874.278" y="-954.979" font-family="Times,serif" font-size="14.00">Cascade fn</text>
</g>
<!-- cosmos&#45;&gt;liblookup -->
<g id="edge22" class="edge"><title>cosmos&#45;&gt;liblookup</title>
<path fill="none" stroke="black" d="M841.532,-940.6C832.141,-934.716 822.193,-927.766 813.843,-920.325 775.524,-886.176 739.782,-838.119 719.361,-808.505"/>
<polygon fill="black" stroke="black" points="722.051,-806.238 713.529,-799.943 716.266,-810.178 722.051,-806.238"/>
</g>
<!-- aframe -->
<g id="node16" class="node"><title>aframe</title>
<polygon fill="none" stroke="black" points="876.043,-917.125 817.043,-917.125 817.043,-881.125 876.043,-881.125 876.043,-917.125"/>
<text text-anchor="middle" x="846.543" y="-895.425" font-family="Times,serif" font-size="14.00">Aframe</text>
</g>
<!-- aframe&#45;&gt;gridhost -->
<g id="edge21" class="edge"><title>aframe&#45;&gt;gridhost</title>
<path fill="none" stroke="black" d="M817.038,-887.221C768.712,-867.723 672.628,-828.956 618.151,-806.977"/>
<polygon fill="black" stroke="black" points="619.391,-803.703 608.808,-803.207 616.772,-810.194 619.391,-803.703"/>
</g>
<!-- aframe&#45;&gt;liblookup -->
<g id="edge23" class="edge"><title>aframe&#45;&gt;liblookup</title>
<path fill="none" stroke="black" d="M824.226,-881.044C799.629,-861.115 759.907,-828.931 732.385,-806.633"/>
<polygon fill="black" stroke="black" points="734.239,-803.63 724.266,-800.054 729.832,-809.069 734.239,-803.63"/>
</g>
<!-- libserver -->
<g id="node17" class="node"><title>libserver</title>
<polygon fill="none" stroke="black" points="1007.41,-684.314 943.412,-684.314 943.412,-648.314 1007.41,-648.314 1007.41,-684.314"/>
<text text-anchor="middle" x="975.412" y="-662.614" font-family="Times,serif" font-size="14.00">libserver</text>
</g>
<!-- libserver&#45;&gt;hiena -->
<g id="edge24" class="edge"><title>libserver&#45;&gt;hiena</title>
<path fill="none" stroke="black" d="M949.502,-648.244C890.626,-607.032 750.581,-508.073 733.974,-487.726 718.126,-468.309 706.627,-442.139 699.478,-422.478"/>
<polygon fill="black" stroke="black" points="702.724,-421.157 696.135,-412.86 696.112,-423.455 702.724,-421.157"/>
</g>
<!-- server modules -->
<g id="node18" class="node"><title>server modules</title>
<polygon fill="none" stroke="black" stroke-width="2" points="1203.36,-664.771 1103.36,-664.771 1103.36,-628.771 1203.36,-628.771 1203.36,-664.771"/>
<text text-anchor="middle" x="1153.36" y="-643.071" font-family="Times,serif" font-size="14.00">server modules</text>
</g>
<!-- libserver&#45;&gt;server modules -->
<g id="edge25" class="edge"><title>libserver&#45;&gt;server modules</title>
<path fill="none" stroke="black" d="M1007.64,-662.775C1031.37,-660.169 1064.33,-656.548 1092.91,-653.409"/>
<polygon fill="black" stroke="black" points="1093.66,-656.849 1103.22,-652.278 1092.9,-649.89 1093.66,-656.849"/>
</g>
<!-- types -->
<g id="node19" class="node"><title>types</title>
<polygon fill="none" stroke="black" points="717.474,-166.426 663.474,-166.426 663.474,-130.426 717.474,-130.426 717.474,-166.426"/>
<text text-anchor="middle" x="690.474" y="-144.726" font-family="Times,serif" font-size="14.00">types</text>
</g>
<!-- types&#45;&gt;mapping engine -->
<g id="edge26" class="edge"><title>types&#45;&gt;mapping engine</title>
<path fill="none" stroke="black" d="M685.445,-166.6C674.133,-209.828 648.575,-322.167 660.463,-415.755 663.688,-441.147 671.275,-469.272 677.465,-489.48"/>
<polygon fill="black" stroke="black" points="674.205,-490.781 680.543,-499.27 680.882,-488.681 674.205,-490.781"/>
</g>
<!-- hnfc -->
<g id="node20" class="node"><title>hnfc</title>
<polygon fill="none" stroke="black" stroke-width="2" points="715.155,-36.2171 661.155,-36.2171 661.155,-0.21713 715.155,-0.21713 715.155,-36.2171"/>
<text text-anchor="middle" x="688.155" y="-14.5171" font-family="Times,serif" font-size="14.00">hnfc</text>
</g>
<!-- hnfc&#45;&gt;types -->
<g id="edge28" class="edge"><title>hnfc&#45;&gt;types</title>
<path fill="none" stroke="black" d="M688.477,-36.3221C688.863,-57.967 689.513,-94.4526 689.966,-119.9"/>
<polygon fill="black" stroke="black" points="686.469,-120.119 690.147,-130.055 693.468,-119.994 686.469,-120.119"/>
</g>
<!-- libaddr -->
<g id="node21" class="node"><title>libaddr</title>
<polygon fill="none" stroke="black" points="861.642,-735.081 806.642,-735.081 806.642,-699.081 861.642,-699.081 861.642,-735.081"/>
<text text-anchor="middle" x="834.142" y="-713.381" font-family="Times,serif" font-size="14.00">libaddr</text>
</g>
<!-- libaddr&#45;&gt;gridhost -->
<g id="edge32" class="edge"><title>libaddr&#45;&gt;gridhost</title>
<path fill="none" stroke="black" d="M806.616,-723.371C772.889,-731.253 714.109,-745.557 664.485,-760.559 649.272,-765.158 632.759,-770.772 618.28,-775.909"/>
<polygon fill="black" stroke="black" points="616.855,-772.701 608.622,-779.37 619.216,-779.291 616.855,-772.701"/>
</g>
<!-- libaddr&#45;&gt;grid instruction -->
<g id="edge30" class="edge"><title>libaddr&#45;&gt;grid instruction</title>
<path fill="none" stroke="black" d="M806.353,-711.061C792.518,-708.063 774.87,-704.24 756.628,-700.288"/>
<polygon fill="black" stroke="black" points="757.267,-696.845 746.753,-698.149 755.785,-703.687 757.267,-696.845"/>
</g>
<!-- libaddr&#45;&gt;fragment -->
<g id="edge31" class="edge"><title>libaddr&#45;&gt;fragment</title>
<path fill="none" stroke="black" d="M818.972,-699.048C796.095,-671.855 752.64,-620.201 726.234,-588.812"/>
<polygon fill="black" stroke="black" points="728.706,-586.314 719.59,-580.915 723.349,-590.82 728.706,-586.314"/>
</g>
<!-- libaddr&#45;&gt;libserver -->
<g id="edge29" class="edge"><title>libaddr&#45;&gt;libserver</title>
<path fill="none" stroke="black" d="M861.716,-707.172C882.161,-699.825 910.391,-689.68 933.605,-681.338"/>
<polygon fill="black" stroke="black" points="934.983,-684.562 943.21,-677.886 932.615,-677.974 934.983,-684.562"/>
</g>
</g>
</svg>
